<?xml version="1.0" standalone="no"?>
<!DOCTYPE svg PUBLIC "-//W3C//DTD SVG 20010904//EN"
 "http://www.w3.org/TR/2001/REC-SVG-20010904/DTD/svg10.dtd">
<svg version="1.0" xmlns="http://www.w3.org/2000/svg"
 width="1024.000000pt" height="1024.000000pt" viewBox="0 0 1024.000000 1024.000000"
 preserveAspectRatio="xMidYMid meet">

<g transform="translate(0.000000,1024.000000) scale(0.100000,-0.100000)"
fill="#000000" stroke="none">
<path d="M1387 6685 c-164 -45 -294 -201 -317 -378 -13 -97 -13 -1937 0 -2047
17 -150 100 -276 230 -353 101 -59 64 -57 1250 -57 1184 0 1144 -2 1252 57 69
37 153 130 191 210 l32 68 0 1090 0 1090 -22 55 c-46 111 -142 207 -253 253
l-55 22 -1130 2 c-913 1 -1139 -1 -1178 -12z m2303 -206 c55 -25 95 -62 123
-114 l22 -40 3 -1029 c3 -1161 7 -1092 -73 -1171 -80 -80 -3 -76 -1231 -73
l-1089 3 -41 22 c-54 29 -117 101 -132 151 -9 29 -12 304 -12 1049 0 1109 -3
1059 60 1135 17 20 53 48 82 62 l52 26 1095 0 c1081 0 1097 -1 1141 -21z"/>
<path d="M3402 6068 c-22 -11 -109 -130 -607 -836 -137 -194 -252 -351 -256
-350 -3 2 -92 104 -197 228 -232 275 -231 275 -284 275 -69 0 -110 -75 -76
-138 9 -17 431 -527 493 -595 17 -19 67 -30 100 -21 33 9 46 25 331 419 141
196 553 786 606 869 36 58 36 94 -1 132 -31 31 -68 37 -109 17z"/>
<path d="M2005 6002 c-11 -2 -55 -38 -97 -79 l-77 -76 -51 46 c-43 39 -59 47
-91 47 -51 0 -79 -27 -79 -76 0 -32 10 -47 87 -125 83 -86 88 -89 131 -89 44
0 48 3 163 118 101 100 119 122 119 148 0 57 -49 97 -105 86z"/>
<path d="M2302 5943 c-16 -6 -42 -57 -42 -82 0 -12 13 -35 29 -53 l29 -33 304
-3 c167 -2 318 0 337 3 77 14 111 110 55 154 -26 20 -37 21 -363 20 -185 0
-342 -3 -349 -6z"/>
<path d="M1632 5298 c-28 -31 -37 -71 -20 -101 22 -42 144 -166 173 -177 64
-24 131 33 118 101 -2 14 -41 65 -86 112 -77 82 -84 87 -123 87 -29 0 -46 -6
-62 -22z"/>
<path d="M2461 5284 c-52 -43 -39 -113 25 -140 52 -22 98 -9 150 41 34 32 44
49 44 73 0 42 -22 52 -114 52 -66 0 -78 -3 -105 -26z"/>
<path d="M3264 5301 c-56 -24 -72 -104 -29 -146 23 -24 30 -25 140 -25 110 0
117 1 140 25 33 32 33 84 1 122 -23 27 -28 28 -128 30 -56 2 -113 -1 -124 -6z"/>
<path d="M1664 4680 c-57 -23 -73 -109 -28 -151 25 -24 28 -24 220 -24 l194 0
27 27 c37 37 37 89 0 126 l-27 27 -183 2 c-100 1 -192 -2 -203 -7z"/>
<path d="M2875 4681 c-62 -26 -79 -102 -32 -149 l27 -27 292 -3 c307 -3 334 0
363 42 17 24 19 69 5 97 -25 45 -51 49 -352 48 -156 0 -292 -4 -303 -8z"/>
<path d="M4436 5994 c-8 -20 -8 -158 0 -178 5 -14 34 -16 220 -16 l214 0 0
-595 0 -595 26 -10 c14 -6 54 -10 89 -10 35 0 75 4 89 10 l26 10 0 595 0 595
220 0 221 0 -3 103 -3 102 -546 3 c-492 2 -547 1 -553 -14z"/>
<path d="M6274 5995 c-4 -9 64 -129 174 -307 99 -161 213 -347 253 -413 l74
-120 5 -272 c3 -149 9 -275 13 -280 5 -4 53 -8 108 -8 78 0 102 3 109 15 6 8
10 130 10 278 l0 264 87 141 c47 78 163 265 256 415 97 157 166 279 163 288
-7 19 -248 21 -264 2 -5 -7 -87 -152 -182 -321 -145 -258 -175 -306 -184 -290
-5 10 -85 153 -177 318 l-168 300 -135 3 c-115 2 -137 0 -142 -13z"/>
<path d="M5736 5624 c-165 -40 -290 -163 -338 -333 -22 -79 -27 -248 -8 -336
28 -138 118 -261 235 -321 80 -42 153 -58 255 -58 234 1 410 131 471 349 22
78 19 305 -5 375 -61 182 -165 281 -335 322 -89 21 -193 22 -275 2z m227 -190
c121 -41 200 -201 183 -372 -20 -191 -138 -312 -293 -299 -144 11 -234 120
-249 300 -22 265 150 442 359 371z"/>
<path d="M7718 5624 c-84 -20 -154 -59 -212 -118 -99 -99 -146 -228 -146 -401
0 -299 169 -499 447 -530 138 -15 314 43 403 135 96 98 140 224 140 400 0 168
-39 284 -130 383 -111 122 -318 176 -502 131z m214 -184 c58 -16 118 -69 149
-130 78 -153 54 -374 -52 -478 -52 -51 -95 -67 -179 -67 -64 0 -82 4 -123 28
-97 57 -142 158 -141 317 2 127 27 196 98 265 28 28 67 56 86 62 46 14 116 16
162 3z"/>
<path d="M8505 5597 c-4 -13 -5 -194 -3 -403 l3 -379 33 -68 c37 -74 74 -108
149 -137 146 -55 323 -22 428 81 23 21 43 39 45 39 3 0 4 -24 2 -52 -1 -29 2
-59 7 -67 6 -9 36 -15 90 -18 135 -7 122 -63 119 520 l-3 502 -95 3 c-80 2
-97 0 -107 -15 -10 -13 -13 -90 -13 -312 0 -173 -4 -311 -10 -333 -46 -166
-282 -239 -383 -119 -14 17 -31 48 -37 69 -6 22 -10 169 -10 363 0 239 -3 328
-12 337 -8 8 -46 12 -105 12 -89 0 -93 -1 -98 -23z"/>
</g>
</svg>
